<?xml version="1.0" standalone="no"?><!DOCTYPE svg PUBLIC "-//W3C//DTD SVG 1.1//EN" "http://www.w3.org/Graphics/SVG/1.1/DTD/svg11.dtd"><svg t="1670060984939" class="icon" viewBox="0 0 1024 1024" version="1.1" xmlns="http://www.w3.org/2000/svg" p-id="1991" xmlns:xlink="http://www.w3.org/1999/xlink" width="200" height="200"><path d="M131.84483 540.768604a452.018717 452.018717 0 0 1 36.216755-338.267774l-26.517736 7.602717a472.962415 472.962415 0 0 0 825.991245 457.863245l-7.602717-26.517735a452.752906 452.752906 0 0 1-828.087547-100.680453z" fill="#09AD9C" opacity=".48" p-id="1992"></path><path d="M673.115774 786.055245a384.173887 384.173887 0 0 1-403.427019-612.690113l-17.060227 4.888151A394.452528 394.452528 0 1 0 935.704151 556.872453l-4.34717-15.166793A385.700226 385.700226 0 0 1 673.115774 786.064906z" fill="#09AD9C" opacity=".48" p-id="1993"></path><path d="M511.864755 339.311094v21.059623h-46.756227v-21.059623z m-46.756227 55.257359v-21.832453h46.756227v21.832453z m-61.44 0v-21.832453h46.756227v21.832453z m46.756227-55.257359v21.059623h-46.756227v-21.059623z m14.683773-31.299622h-14.683773v18.547924h-60.473963v91.580378h13.717736v-10.819623h46.756227v36.129811h14.683773v-36.129811h46.756227v10.046792h14.104151v-90.807547h-60.860378z m1.352453-20.093585l3.091321-0.966038a196.038038 196.038038 0 0 0-10.626415-21.059623l-14.490566 4.250566a167.655849 167.655849 0 0 1 8.694339 17.775095h-74.964528v31.49283h14.104151v-17.581887h130.801509v17.581887h14.683774v-31.49283z m160.362264 63.372075l-22.218868 6.182642v-37.868679h21.832453v-13.524529h-21.832453v-38.641509h-14.104151v38.641509h-26.469434v13.524529h26.469434v41.73283c-10.819623 2.898113-20.673208 5.603019-28.787924 7.535094l4.250566 13.910943 24.537358-7.148679v49.847547c0 2.704906-0.966038 3.670943-3.670943 3.670944-2.318491 0-10.819623 0.193208-19.900377-0.193208a63.516981 63.516981 0 0 1 4.443773 13.331321 69.303547 69.303547 0 0 0 26.083019-2.704906c5.023396-2.125283 7.148679-5.989434 7.148679-14.104151v-53.904905c7.921509-2.511698 15.843019-5.023396 23.957736-7.341887z m21.832453 65.690566v-73.805283h28.015094v-13.524528h-28.015094v-59.507925h-14.104151v143.553208a16.509585 16.509585 0 0 1-6.762264 14.297358 53.885585 53.885585 0 0 1 6.955472 12.751699c3.091321-3.284528 8.307925-6.182642 42.50566-21.832453a60.048906 60.048906 0 0 1-2.31849-12.751698z m54.677736 8.307925c-4.830189 0-5.603019-1.54566-5.603019-9.080755v-64.531321a315.420981 315.420981 0 0 0 38.448302-30.333585l-10.819623-9.467169a238.282868 238.282868 0 0 1-27.628679 24.537358v-66.076981h-14.297358v145.871698c0 17.775094 3.864151 22.798491 17.968301 22.798491h20.48c13.138113 0 16.422642-9.273962 17.775095-34.390944a37.376 37.376 0 0 1-13.331321-6.569056c-0.579623 21.639245-1.352453 27.242264-5.409811 27.242264z m-225.666415 94.47849v17.002265h-32.265661v-17.002265z m46.563019 0v17.002265h-33.618113v-17.002265z m-33.618113 45.210566v-17.581886h33.618113v17.581886z m-45.210567 0v-17.581886h32.265661v17.581886z m0 11.012831h32.265661v31.49283h12.944906v-31.49283h33.618113v17.581886c0 2.511698-0.77283 3.284528-3.284529 3.284529-2.318491 0-10.433208 0.193208-19.513962-0.193208a45.635623 45.635623 0 0 1 3.864151 11.978868 77.737057 77.737057 0 0 0 26.083019-2.31849c5.023396-2.125283 6.569057-5.409811 6.569057-12.558491v-85.011321h-25.310189a157.753962 157.753962 0 0 0-14.297359-7.535094 168.979321 168.979321 0 0 0 39.41434-27.628679l-8.69434-6.762265-2.898113 0.772831h-94.285283v11.399245h81.14717a172.737208 172.737208 0 0 1-27.242264 16.422641c-9.46717-4.057358-19.513962-8.114717-28.015094-11.206037l-8.887548 8.114717c11.78566 4.443774 25.696604 10.626415 37.482264 16.422641h-54.677735v99.501887h13.717735z m-27.821886-76.123774a279.725887 279.725887 0 0 0-33.231698-31.686038l-10.046793 8.114717a276.586264 276.586264 0 0 1 32.845283 33.038491z m-6.375849 32.652076h-40.96v13.524528h27.049056v54.484528a96.362264 96.362264 0 0 0-27.821887 22.605283l9.080755 11.785661c9.660377-12.944906 19.127547-23.957736 25.696604-23.957736 4.443774 0 11.206038 6.375849 18.741132 11.01283 13.524528 8.307925 29.560755 10.626415 53.132075 10.626415 20.673208 0 54.291321-1.159245 67.622642-1.932076a59.034566 59.034566 0 0 1 4.057358-14.10415c-19.70717 1.932075-48.688302 3.670943-71.293584 3.670943-21.446038 0-37.675472-1.54566-50.620378-9.46717-6.762264-4.057358-10.819623-7.728302-14.683773-9.853585z m282.276226 52.552452c0 3.284528-1.352453 4.443774-5.216604 4.636981-3.864151 0-17.388679 0-31.299622-0.386415a53.924226 53.924226 0 0 1 5.023396 14.490566 134.037736 134.037736 0 0 0 36.516226-2.704905c6.762264-2.125283 9.273962-6.375849 9.273963-16.036227v-76.316981h26.662641v-13.717736h-26.662641v-33.81132h-14.297359v33.81132h-74.191698v13.717736h74.191698z m-65.110943-54.870943a289.975547 289.975547 0 0 1 26.855849 38.834717l12.172075-7.341887a323.516377 323.516377 0 0 0-27.628679-37.675472z m-17.581887-32.458868a196.656302 196.656302 0 0 0-29.17434-32.072453l-11.01283 7.341887a183.083472 183.083472 0 0 1 28.401509 33.038491z m-5.216604 34.777359h-40.573585v13.524528h26.469434v50.233962a90.218264 90.218264 0 0 0-28.981132 22.798491l10.046793 13.524528c9.853585-13.138113 19.127547-24.537358 25.503396-24.537359 4.250566 0 10.626415 6.375849 18.547924 11.399246 13.331321 8.501132 29.367547 10.626415 53.132076 10.626415 18.547925 0 52.359245-0.966038 66.076981-1.932076a47.422792 47.422792 0 0 1 4.443773-15.456603c-18.741132 1.932075-47.529057 3.670943-70.134339 3.670943-21.25283 0-37.868679-1.54566-50.233962-9.273962-6.569057-4.057358-10.626415-7.535094-14.297359-9.853585z" fill="#09AD9C" opacity=".48" p-id="1994"></path></svg>