<svg  class="icon" viewBox="0 0 1024 1024" version="1.1" xmlns="http://www.w3.org/2000/svg" p-id="2153" xmlns:xlink="http://www.w3.org/1999/xlink" width="200" height="200"><path d="M131.84483 540.768604a452.018717 452.018717 0 0 1 36.216755-338.267774l-26.517736 7.602717a472.962415 472.962415 0 0 0 825.991245 457.863245l-7.602717-26.517735a452.752906 452.752906 0 0 1-828.087547-100.680453z" fill="#FF3333" opacity=".48" p-id="2154"></path><path d="M673.115774 786.055245a384.173887 384.173887 0 0 1-403.427019-612.690113l-17.060227 4.888151A394.452528 394.452528 0 1 0 935.704151 556.872453l-4.34717-15.166793A385.700226 385.700226 0 0 1 673.115774 786.064906z" fill="#FF3333" opacity=".48" p-id="2155"></path><path d="M487.327396 361.008302v21.059623h-46.756226v-21.059623z m-46.756226 55.257358v-21.832452h46.756226v21.832452z m-61.44 0v-21.832452h46.756226v21.832452z m46.756226-55.257358v21.059623h-46.756226v-21.059623z m14.683774-31.299623h-14.683774v18.547925h-60.473962v91.580377h13.717736v-10.819623h46.756226v36.129812h14.683774v-36.129812h46.756226v10.046793h14.104151v-90.807547h-60.860377z m1.352453-20.093585l3.09132-0.966037a196.047698 196.047698 0 0 0-10.626415-21.059623l-14.490566 4.250566a167.655849 167.655849 0 0 1 8.69434 17.775094h-74.964528v31.492831h14.104151v-17.581887h130.801509v17.581887h14.683774v-31.492831z m160.362264 63.372076l-22.218868 6.182641v-37.868679h21.832453v-13.524528h-21.832453v-38.64151h-14.104151v38.64151h-26.469434v13.524528h26.469434v41.73283c-10.819623 2.898113-20.673208 5.603019-28.787925 7.535095l4.250566 13.910943 24.537359-7.148679v49.847547c0 2.704906-0.966038 3.670943-3.670943 3.670943-2.318491 0-10.819623 0.193208-19.900378-0.193207a63.516981 63.516981 0 0 1 4.443774 13.331321 69.303547 69.303547 0 0 0 26.083019-2.704906c5.023396-2.125283 7.148679-5.989434 7.148679-14.104151v-53.904906c7.921509-2.511698 15.843019-5.023396 23.957736-7.341887z m21.832453 65.690566v-73.805283h28.015094v-13.524528h-28.015094v-59.507925h-14.104151v143.553208a16.509585 16.509585 0 0 1-6.762264 14.297358 53.885585 53.885585 0 0 1 6.955471 12.751698c3.091321-3.284528 8.307925-6.182642 42.505661-21.832453a60.048906 60.048906 0 0 1-2.318491-12.751698z m54.677735 8.307924c-4.830189 0-5.603019-1.54566-5.603018-9.080754v-64.531321a315.420981 315.420981 0 0 0 38.448301-30.333585l-10.819622-9.46717a238.282868 238.282868 0 0 1-27.628679 24.537359v-66.076981h-14.297359v145.871698c0 17.775094 3.864151 22.798491 17.968302 22.79849h20.48c13.138113 0 16.422642-9.273962 17.775094-34.390943a37.376 37.376 0 0 1-13.33132-6.569057c-0.579623 21.639245-1.352453 27.242264-5.409812 27.242264z m-249.430943 63.178868v-14.297358h-164.999245v14.297358h85.397736a224.120755 224.120755 0 0 1-90.227925 84.238491 98.816 98.816 0 0 1 9.660377 12.55849 247.750038 247.750038 0 0 0 69.941133-56.223396v107.423396h15.263396V531.417358c4.830189-7.148679 9.46717-14.104151 13.717736-21.25283z m-71.100377 41.539623a431.132981 431.132981 0 0 1 65.110943 52.552453l11.399245-11.01283a440.976906 440.976906 0 0 0-65.883773-50.813585z m201.515471-10.24v17.002264h-32.26566v-17.002264z m46.563019 0v17.002264h-33.618113v-17.002264z m-33.618113 45.210566v-17.581887h33.618113v17.581887z m-45.210566 0v-17.581887h32.26566v17.581887z m0 11.01283h32.26566v31.49283h12.944906v-31.49283h33.618113v17.581887c0 2.511698-0.77283 3.284528-3.284528 3.284528-2.318491 0-10.433208 0.193208-19.513962-0.193207a45.635623 45.635623 0 0 1 3.864151 11.978868 77.737057 77.737057 0 0 0 26.083019-2.318491c5.023396-2.125283 6.569057-5.409811 6.569056-12.55849v-85.011321h-25.310189a157.753962 157.753962 0 0 0-14.297358-7.535095 168.979321 168.979321 0 0 0 39.41434-27.628679l-8.69434-6.762264-2.898113 0.77283h-94.285283v11.399245h81.14717a172.737208 172.737208 0 0 1-27.242265 16.422642c-9.46717-4.057358-19.513962-8.114717-28.015094-11.206038l-8.887547 8.114717c11.78566 4.443774 25.696604 10.626415 37.482264 16.422642h-54.677736v99.501887h13.717736z m-27.821887-76.123773a279.725887 279.725887 0 0 0-33.231698-31.686038l-10.046792 8.114717a276.586264 276.586264 0 0 1 32.845283 33.03849z m-6.375849 32.652075h-40.96v13.524528h27.049057v54.484529a96.362264 96.362264 0 0 0-27.821887 22.605283l9.080755 11.78566c9.660377-12.944906 19.127547-23.957736 25.696603-23.957736 4.443774 0 11.206038 6.375849 18.741133 11.01283 13.524528 8.307925 29.560755 10.626415 53.132075 10.626415 20.673208 0 54.291321-1.159245 67.622642-1.932075a59.034566 59.034566 0 0 1 4.057358-14.104151c-19.70717 1.932075-48.688302 3.670943-71.293585 3.670943-21.446038 0-37.675472-1.54566-50.620377-9.467169-6.762264-4.057358-10.819623-7.728302-14.683774-9.853585z m282.276227 52.552453c0 3.284528-1.352453 4.443774-5.216604 4.636981-3.864151 0-17.388679 0-31.299623-0.386415a53.924226 53.924226 0 0 1 5.023396 14.490566 134.037736 134.037736 0 0 0 36.516227-2.704906c6.762264-2.125283 9.273962-6.375849 9.273962-16.036226v-76.316981h26.662642v-13.717736h-26.662642v-33.811321h-14.297358v33.811321h-74.191699v13.717736h74.191699z m-65.110944-54.870944a289.975547 289.975547 0 0 1 26.855849 38.834717l12.172076-7.341886a323.516377 323.516377 0 0 0-27.62868-37.675472z m-17.581887-32.458867a196.656302 196.656302 0 0 0-29.174339-32.072453l-11.01283 7.341887a183.083472 183.083472 0 0 1 28.401509 33.03849z m-5.216603 34.777358h-40.573585v13.524528h26.469434v50.233963a90.218264 90.218264 0 0 0-28.981132 22.79849l10.046792 13.524528c9.853585-13.138113 19.127547-24.537358 25.503396-24.537358 4.250566 0 10.626415 6.375849 18.547925 11.399245 13.331321 8.501132 29.367547 10.626415 53.132075 10.626415 18.547925 0 52.359245-0.966038 66.076981-1.932075a47.422792 47.422792 0 0 1 4.443774-15.456604c-18.741132 1.932075-47.529057 3.670943-70.13434 3.670944-21.25283 0-37.868679-1.54566-50.233962-9.273963-6.569057-4.057358-10.626415-7.535094-14.297358-9.853585z" fill="#FF3333" opacity=".48" p-id="2156"></path></svg>